<svg width="32" height="32" viewBox="0 0 32 32" fill="none" xmlns="http://www.w3.org/2000/svg">
  <rect width="32" height="32" rx="6" fill="#0D0D0D"/>
  <path d="M10.5 9C10.5 8.44772 10.9477 8 11.5 8H13.5C14.0523 8 14.5 8.44772 14.5 9V17.5C14.5 19.7091 12.7091 21.5 10.5 21.5C10.2239 21.5 10 21.2761 10 21V19.5C10 19.2239 10.2239 19 10.5 19C11.6046 19 12.5 18.1046 12.5 17V9H10.5Z" fill="#AAFF45"/>
  <path d="M18 15.5V9C18 8.44772 18.4477 8 19 8H20.5C21.0523 8 21.5 8.44772 21.5 9V11.5C21.5 11.7761 21.7239 12 22 12H23.5C24.0523 12 24.5 12.4477 24.5 13V14C24.5 14.5523 24.0523 15 23.5 15H22C21.7239 15 21.5 15.2239 21.5 15.5V18C21.5 19.1046 22.3954 20 23.5 20C23.7761 20 24 20.2239 24 20.5V22C24 22.2761 23.7761 22.5 23.5 22.5C21.2909 22.5 19.5 20.7091 19.5 18.5V15.5H18Z" fill="#AAFF45"/>
</svg>
